<?xml version="1.0" encoding="UTF-8" standalone="no"?>
<!-- Created with Inkscape (http://www.inkscape.org/) -->

<svg
   xmlns:dc="http://purl.org/dc/elements/1.1/"
   xmlns:cc="http://creativecommons.org/ns#"
   xmlns:rdf="http://www.w3.org/1999/02/22-rdf-syntax-ns#"
   xmlns:svg="http://www.w3.org/2000/svg"
   xmlns="http://www.w3.org/2000/svg"
   xmlns:sodipodi="http://sodipodi.sourceforge.net/DTD/sodipodi-0.dtd"
   xmlns:inkscape="http://www.inkscape.org/namespaces/inkscape"
   width="94.639473mm"
   height="53.246433mm"
   viewBox="0 0 335.33672 188.66846"
   id="svg4226"
   version="1.1"
   inkscape:version="0.91 r13725"
   sodipodi:docname="back.svg">
  <defs
     id="defs4228" />
  <sodipodi:namedview
     id="base"
     pagecolor="#ffffff"
     bordercolor="#666666"
     borderopacity="1.0"
     inkscape:pageopacity="0.0"
     inkscape:pageshadow="2"
     inkscape:zoom="1.979899"
     inkscape:cx="295.49295"
     inkscape:cy="71.492403"
     inkscape:document-units="px"
     inkscape:current-layer="layer1"
     showgrid="false"
     fit-margin-top="0"
     fit-margin-left="0"
     fit-margin-right="0"
     fit-margin-bottom="0"
     inkscape:window-width="1920"
     inkscape:window-height="1016"
     inkscape:window-x="0"
     inkscape:window-y="27"
     inkscape:window-maximized="1" />
  <metadata
     id="metadata4231">
    <rdf:RDF>
      <cc:Work
         rdf:about="">
        <dc:format>image/svg+xml</dc:format>
        <dc:type
           rdf:resource="http://purl.org/dc/dcmitype/StillImage" />
        <dc:title></dc:title>
      </cc:Work>
    </rdf:RDF>
  </metadata>
  <g
     inkscape:label="Ebene 1"
     inkscape:groupmode="layer"
     id="layer1"
     transform="translate(137.99724,-415.18615)">
    <path
       style="fill:#007acc;fill-opacity:1"
       d="m -60.160521,557.11199 c -42.968749,-25.66345 -77.995029,-47.14231 -77.836179,-47.73082 0.26267,-0.9731 155.889583,-94.19502 157.251433,-94.19502 0.32161,0 0.58475,10.96875 0.58475,24.375 l 0,24.375 88.749997,0 88.75,0 0,45.625 0,45.625 -88.75,0 -88.749997,0 0,24.375 c 0,13.40625 -0.42187,24.33824 -0.9375,24.29332 -0.51562,-0.0449 -36.09375,-21.07904 -79.062504,-46.74248 z M 81.089483,525.32281 c 1.86507,-0.51575 3.28013,-1.93227 3.50976,-3.51342 0.36511,-2.51394 -0.005,-2.61392 -7.2476,-1.9572 -11.7547,1.06588 -17.51216,-3.55038 -17.51216,-14.04104 0,-11.68634 9.56304,-17.21799 21.5625,-12.47261 1.72933,0.68389 2.1875,0.21307 2.1875,-2.24786 0,-3.57721 -2.51218,-4.61098 -11.2695,-4.63746 -15.36615,-0.0465 -24.69353,15.84423 -17.53566,29.87481 4.09497,8.02682 15.5906,11.95763 26.30516,8.99478 z M 6.8531033,522.25898 c 2.36236,-2.032 3.4030397,-4.12953 3.4030397,-6.85887 0,-4.2598 -3.3949697,-8.96396 -6.4692597,-8.96396 -1.377,0 -0.97134,-0.98511 1.44374,-3.5059 4.06267,-4.24052 4.33878,-9.23377 0.69815,-12.62554 -2.7572,-2.56872 -12.53069,-4.42971 -19.2513203,-3.66567 l -3.71297,0.42211 -0.34506,19.0625 -0.34505,19.0625 10.5878503,0 c 9.30075,0 11.00153,-0.35584 13.99088,-2.92717 z m -18.2636203,-8.48638 0,-6.41356 4.5072103,0.73142 c 13.64133,2.21369 14.11106,12.09569 0.57497,12.09569 l -5.0821803,0 0,-6.41355 z m 0,-16.15494 0,-5.06849 5.9375003,0.38099 c 5.11224999,0.32804 5.99427999,0.78146 6.34594999,3.26229 0.60349001,4.25704 -1.95790999,6.4937 -7.43649999,6.4937 -4.8323603,0 -4.8469503,-0.0153 -4.8469503,-5.06849 z m 32.5,23.19349 1.44387,-4.375 8.55613,0 8.55612,0 1.44388,4.375 c 1.22754,3.71948 2.01126,4.375 5.23067,4.375 2.52547,0 3.58111,-0.52045 3.16927,-1.5625 -14.14566,-35.79147 -14.89583,-37.33178 -17.99187,-36.94293 -2.65443,0.33338 -3.94852,2.69917 -10.46431,19.13043 -4.0894,10.3125 -7.43718,18.89063 -7.43952,19.0625 -0.002,0.17188 1.35838,0.3125 3.02382,0.3125 2.35228,0 3.35029,-0.97638 4.47194,-4.375 z m 4.99381,-11.5625 c -0.0113,-1.76524 4.24912,-12.8125 4.94061,-12.81002 0.37982,0.001 1.90457,3.09511 3.38833,6.875 l 2.69774,6.87252 -5.51024,0 c -3.03064,0 -5.51304,-0.42187 -5.51644,-0.9375 z m 71.25786,6.875 10e-4,-9.0625 8.435817,9.18933 c 7.39158,8.0518 8.90002,9.13494 12.18582,8.75 l 3.75,-0.43933 -8.4375,-9.01302 c -4.64062,-4.95716 -8.4375,-9.5528 -8.4375,-10.21253 0,-0.65972 3.09375,-4.82359 6.875,-9.25302 3.78125,-4.42944 6.875,-8.41193 6.875,-8.84998 4.3e-4,-0.43805 -1.29292,-0.79645 -2.87368,-0.79645 -2.03791,0 -5.03824,2.60202 -10.3125,8.94346 l -7.438387,8.94346 -0.625,-8.63096 c -0.59425,-8.20636 -0.77874,-8.63096 -3.75,-8.63096 l -3.125,0 -0.34506,19.0625 -0.34505,19.0625 3.78255,0 3.78256,0 10e-4,-9.0625 z"
       id="path4839"
       inkscape:connector-curvature="0" />
  </g>
</svg>
