<?xml version="1.0" encoding="UTF-8" standalone="no"?>
<!-- Created with Inkscape (http://www.inkscape.org/) -->

<svg
   xmlns:dc="http://purl.org/dc/elements/1.1/"
   xmlns:cc="http://creativecommons.org/ns#"
   xmlns:rdf="http://www.w3.org/1999/02/22-rdf-syntax-ns#"
   xmlns:svg="http://www.w3.org/2000/svg"
   xmlns="http://www.w3.org/2000/svg"
   xmlns:sodipodi="http://sodipodi.sourceforge.net/DTD/sodipodi-0.dtd"
   xmlns:inkscape="http://www.inkscape.org/namespaces/inkscape"
   width="94.672806mm"
   height="53.269444mm"
   viewBox="0 0 335.45482 188.75"
   id="svg2"
   version="1.1"
   inkscape:version="0.91 r13725"
   sodipodi:docname="next.svg">
  <defs
     id="defs4" />
  <sodipodi:namedview
     id="base"
     pagecolor="#ffffff"
     bordercolor="#666666"
     borderopacity="1.0"
     inkscape:pageopacity="0.0"
     inkscape:pageshadow="2"
     inkscape:zoom="0.98994949"
     inkscape:cx="70.527735"
     inkscape:cy="80.543038"
     inkscape:document-units="px"
     inkscape:current-layer="layer1"
     showgrid="false"
     fit-margin-top="2.7755576e-17"
     fit-margin-left="0"
     fit-margin-right="0"
     fit-margin-bottom="0"
     inkscape:window-width="1920"
     inkscape:window-height="1016"
     inkscape:window-x="0"
     inkscape:window-y="27"
     inkscape:window-maximized="1" />
  <metadata
     id="metadata7">
    <rdf:RDF>
      <cc:Work
         rdf:about="">
        <dc:format>image/svg+xml</dc:format>
        <dc:type
           rdf:resource="http://purl.org/dc/dcmitype/StillImage" />
        <dc:title></dc:title>
      </cc:Work>
    </rdf:RDF>
  </metadata>
  <g
     inkscape:label="Ebene 1"
     inkscape:groupmode="layer"
     id="layer1"
     transform="translate(-245.60745,-284.60382)">
    <path
       style="fill:#007acc;fill-opacity:1"
       d="m 423.10745,448.97881 0,-24.375 -88.75,0 -88.75,0 0,-45.625 0,-45.625 88.75,0 88.75,0 0,-24.375 c 0,-13.40625 0.25794,-24.375 0.5732,-24.375 1.3514,0 157.22741,93.36683 157.38153,94.2686 0.14881,0.87072 -155.74104,94.4814 -157.33987,94.4814 -0.33817,0 -0.61486,-10.96875 -0.61486,-24.375 z m -94.73277,-65.3125 0.35777,-12.1875 7.5,12.14246 c 6.53722,10.58371 7.94545,12.14824 10.97006,12.1875 l 3.47005,0.045 -0.34505,-19.0625 c -0.3279,-18.11415 -0.46944,-19.0625 -2.84506,-19.0625 -2.28561,0 -2.5536,1.04167 -3.125,12.14677 l -0.625,12.14677 -7.95536,-12.52749 c -6.46802,-10.18535 -8.45447,-12.45631 -10.625,-12.14677 -2.57521,0.36725 -2.68184,1.05497 -3.0147,19.44322 l -0.34506,19.0625 3.1123,0 c 3.07912,0 3.1161,-0.1299 3.47005,-12.1875 z m 59.73277,9.6875 c 0,-2.30392 -0.83334,-2.5 -10.625,-2.5 l -10.625,0 0,-6.25 0,-6.25 8.84165,0 c 7.74619,0 8.78999,-0.27103 8.42459,-2.1875 -0.33931,-1.77962 -1.98791,-2.25642 -8.84167,-2.55711 l -8.42457,-0.36961 0,-4.94289 0,-4.94289 10.08694,0 c 9.74555,0 10.07342,-0.0952 9.6875,-2.8125 -0.38068,-2.68037 -1.00138,-2.82924 -13.21194,-3.16873 l -12.8125,-0.35623 0,19.41873 0,19.41873 13.75,0 c 12.91666,0 13.75,-0.15152 13.75,-2.5 z m 14.375,-4.39544 c 2.75,-3.73463 5.38814,-6.80471 5.86253,-6.8224 0.47438,-0.0177 3.00563,3.05493 5.625,6.82803 4.15112,5.97957 5.29763,6.8621 8.93143,6.875 l 4.16896,0.0148 -4.74637,-6.5625 c -2.61051,-3.60938 -5.85039,-8.09914 -7.19971,-9.97724 l -2.45334,-3.41475 5.92207,-7.62594 c 7.5579,-9.73242 8.28247,-11.52186 4.44062,-10.96706 -1.73999,0.25126 -4.9775,3.04441 -7.98844,6.892 -2.78451,3.55823 -5.344,6.49922 -5.68775,6.53554 -0.34375,0.0363 -2.83272,-3.01558 -5.53106,-6.78201 -3.4671,-4.83948 -5.7369,-6.84804 -7.73874,-6.84804 -1.55796,0 -3.09536,0.42506 -3.41644,0.94458 -0.32109,0.51952 2.17696,4.72445 5.55123,9.34428 3.37426,4.61984 6.13501,8.80039 6.13501,9.29013 0,0.48973 -2.63015,4.30043 -5.84478,8.46822 -3.21462,4.16778 -6.37725,8.28091 -7.02806,9.14029 -0.88148,1.16399 -0.26752,1.54908 2.40729,1.5099 2.87269,-0.0421 4.59021,-1.41019 8.59055,-6.84284 z m 45.625,-9.35456 0,-16.25 7.58694,0 c 7.15296,0 7.56408,-0.16088 7.1875,-2.8125 -0.39252,-2.76372 -0.70298,-2.8125 -17.89944,-2.8125 -17.19646,0 -17.50693,0.0488 -17.89944,2.8125 -0.37658,2.65162 0.0345,2.8125 7.1875,2.8125 l 7.58694,0 0,16.25 0,16.25 3.125,0 3.125,0 0,-16.25 z"
       id="path4925"
       inkscape:connector-curvature="0" />
  </g>
</svg>
